G04 #@! TF.GenerationSoftware,KiCad,Pcbnew,(5.1.4)-1*
G04 #@! TF.CreationDate,2021-01-21T06:54:33+00:00*
G04 #@! TF.ProjectId,Iggy,49676779-2e6b-4696-9361-645f70636258,1.0*
G04 #@! TF.SameCoordinates,Original*
G04 #@! TF.FileFunction,Profile,NP*
%FSLAX46Y46*%
G04 Gerber Fmt 4.6, Leading zero omitted, Abs format (unit mm)*
G04 Created by KiCad (PCBNEW (5.1.4)-1) date 2021-01-21 06:54:33*
%MOMM*%
%LPD*%
G04 APERTURE LIST*
%ADD10C,0.050000*%
G04 APERTURE END LIST*
D10*
X189825000Y-20000000D02*
X148825000Y-20000000D01*
X189825000Y-128150000D02*
X148825000Y-128150000D01*
X20000000Y-125150000D02*
X20000000Y-23000000D01*
X318650000Y-23000000D02*
X318650000Y-125150000D01*
X148825000Y-128150000D02*
X142825000Y-134150000D01*
X40500000Y-128150000D02*
X46500000Y-134150000D01*
X141825000Y-134150000D02*
X141825000Y-133150000D01*
X142825000Y-134150000D02*
X141825000Y-134150000D01*
X47500000Y-134150000D02*
X47500000Y-133150000D01*
X46500000Y-134150000D02*
X47500000Y-134150000D01*
X189825000Y-128150000D02*
X195825000Y-134150000D01*
X291150000Y-134150000D02*
X291150000Y-133150000D01*
X292150000Y-134150000D02*
X291150000Y-134150000D01*
X196825000Y-134150000D02*
X196825000Y-133150000D01*
X141825000Y-133150000D02*
X47500000Y-133150000D01*
X291150000Y-133150000D02*
X196825000Y-133150000D01*
X23000000Y-128150000D02*
G75*
G02X20000000Y-125150000I0J3000000D01*
G01*
X23000000Y-128150000D02*
X40500000Y-128150000D01*
X298150000Y-128150000D02*
X315650000Y-128150000D01*
X298150000Y-128150000D02*
X292150000Y-134150000D01*
X195825000Y-134150000D02*
X196825000Y-134150000D01*
X315650000Y-20000000D02*
X298150000Y-20000000D01*
X40500000Y-20000000D02*
X23000000Y-20000000D01*
X40500000Y-20000000D02*
X46500000Y-14000000D01*
X148825000Y-20000000D02*
X142825000Y-14000000D01*
X47500000Y-14000000D02*
X47500000Y-15000000D01*
X46500000Y-14000000D02*
X47500000Y-14000000D01*
X141825000Y-14000000D02*
X141825000Y-15000000D01*
X142825000Y-14000000D02*
X141825000Y-14000000D01*
X47500000Y-15000000D02*
X141825000Y-15000000D01*
X196825000Y-15000000D02*
X291150000Y-15000000D01*
X315650000Y-20000000D02*
G75*
G02X318650000Y-23000000I0J-3000000D01*
G01*
X20000000Y-23000000D02*
G75*
G02X23000000Y-20000000I3000000J0D01*
G01*
X318650000Y-125150000D02*
G75*
G02X315650000Y-128150000I-3000000J0D01*
G01*
X291150000Y-14000000D02*
X291150000Y-15000000D01*
X292150000Y-14000000D02*
X291150000Y-14000000D01*
X196825000Y-14000000D02*
X196825000Y-15000000D01*
X195825000Y-14000000D02*
X196825000Y-14000000D01*
X298150000Y-20000000D02*
X292150000Y-14000000D01*
X189825000Y-20000000D02*
X195825000Y-14000000D01*
M02*
