M48
; DRILL file {KiCad (5.1.4)-1} date 21/01/2021 06:57:04
; FORMAT={-:-/ absolute / inch / decimal}
; #@! TF.CreationDate,2021-01-21T06:57:04+00:00
; #@! TF.GenerationSoftware,Kicad,Pcbnew,(5.1.4)-1
; #@! TF.FileFunction,Plated,1,2,PTH
FMAT,2
INCH
T1C0.0157
T2C0.0236
T3C0.0276
T4C0.0315
T5C0.0394
T6C0.0402
T7C0.0433
T8C0.0579
T9C0.0591
%
G90
G05
T1
X9.8705Y-1.5363
X9.9155Y-1.5542
X9.9555Y-1.5721
X9.9976Y-1.5961
X10.9581Y-1.2502
X11.1449Y-0.991
X11.1514Y-1.0992
X11.4114Y-1.1012
T2
X11.6748Y-1.4595
X11.6748Y-1.5186
T3
X11.565Y-1.3548
X11.765Y-1.3548
X11.5644Y-1.1846
X11.7644Y-1.1846
X11.9524Y-1.4902
X12.1524Y-1.4902
X11.5648Y-1.2696
X11.7648Y-1.2696
X10.9855Y-1.5622
X11.1855Y-1.5622
X11.2855Y-1.5622
X11.4855Y-1.5622
T4
X3.5455Y-1.0922
X3.5455Y-1.3922
X7.8855Y-1.0922
X7.8855Y-1.3922
X1.6855Y-1.0922
X1.6855Y-1.3922
X9.1706Y-1.4006
X9.3674Y-1.4006
X10.5052Y-1.0102
X10.6974Y-1.0102
X2.4555Y-1.0422
X2.4555Y-1.3422
X4.7855Y-1.0922
X4.7855Y-1.3922
X6.9455Y-0.9922
X6.9455Y-1.2922
X2.1555Y-1.1422
X2.1555Y-1.4422
X3.3955Y-1.1422
X3.3955Y-1.4422
X6.3255Y-0.9922
X6.3255Y-1.2922
X11.7854Y-4.5432
X11.7854Y-4.8432
X11.0334Y-2.2912
X11.0334Y-2.5912
X8.3705Y-1.0022
X8.3705Y-1.3022
X8.4705Y-1.0022
X8.4705Y-1.3022
X8.5705Y-1.0022
X8.5705Y-1.3022
X8.6705Y-1.0022
X8.6705Y-1.3022
X8.7705Y-1.0022
X8.7705Y-1.3022
X8.8705Y-1.0022
X8.8705Y-1.3022
X8.9705Y-1.0022
X8.9705Y-1.3022
X9.0705Y-1.0022
X9.0705Y-1.3022
X9.1705Y-1.0022
X9.1705Y-1.3022
X9.2705Y-1.0022
X9.2705Y-1.3022
X9.3705Y-1.0022
X9.3705Y-1.3022
X9.4705Y-1.0022
X9.4705Y-1.3022
X9.5705Y-1.0022
X9.5705Y-1.3022
X9.6705Y-1.0022
X9.6705Y-1.3022
X10.2834Y-4.5512
X10.2834Y-4.8512
X11.0365Y-3.7873
X11.0365Y-4.0873
X7.5655Y-0.9922
X7.5655Y-1.2922
X0.9155Y-1.1422
X0.9155Y-1.4422
X8.1855Y-0.9922
X8.1855Y-1.2922
X1.3655Y-0.9922
X1.3655Y-1.2922
X2.7755Y-1.1422
X2.7755Y-1.4422
X4.3155Y-1.0422
X4.3155Y-1.3422
X2.3055Y-1.0922
X2.3055Y-1.3922
X5.5555Y-1.0422
X5.5555Y-1.3422
X5.4055Y-1.0922
X5.4055Y-1.3922
X1.2155Y-1.0422
X1.2155Y-1.3422
X4.1655Y-1.0922
X4.1655Y-1.3922
X7.2655Y-1.0922
X7.2655Y-1.3922
X4.6355Y-1.1422
X4.6355Y-1.4422
X10.2834Y-2.2872
X10.2834Y-2.5872
X6.6455Y-1.0922
X6.6455Y-1.3922
X5.8755Y-1.1422
X5.8755Y-1.4422
X11.8474Y-1.2292
X12.1474Y-1.2292
X10.6555Y-1.5622
X10.8523Y-1.5622
X3.8455Y-0.9922
X3.8455Y-1.2922
X11.7434Y-3.0362
X11.7434Y-3.3362
X9.374Y-0.9088
X9.5708Y-0.9088
X10.2834Y-3.0372
X10.2834Y-3.3372
X5.0855Y-0.9922
X5.0855Y-1.2922
X10.2834Y-3.7872
X10.2834Y-4.0872
X10.1224Y-0.9475
X10.3193Y-0.9475
X6.7955Y-1.0422
X6.7955Y-1.3422
X6.0255Y-1.0922
X6.0255Y-1.3922
X11.8474Y-1.3942
X12.1474Y-1.3942
X3.0755Y-1.0422
X3.0755Y-1.3422
X1.0655Y-1.0922
X1.0655Y-1.3922
X1.9855Y-0.9922
X1.9855Y-1.2922
X6.4955Y-1.1422
X6.4955Y-1.4422
X8.0355Y-1.0422
X8.0355Y-1.3422
X5.2555Y-1.1422
X5.2555Y-1.4422
X4.9355Y-1.0422
X4.9355Y-1.3422
X7.1155Y-1.1422
X7.1155Y-1.4422
X1.5355Y-1.1422
X1.5355Y-1.4422
X11.0334Y-3.0362
X11.0334Y-3.3362
X7.4155Y-1.0422
X7.4155Y-1.3422
X4.0155Y-1.1422
X4.0155Y-1.4422
X4.4655Y-0.9922
X4.4655Y-1.2922
X10.8936Y-1.0522
X11.0905Y-1.0522
X3.2255Y-0.9922
X3.2255Y-1.2922
X11.7384Y-3.7862
X11.7384Y-4.0862
X5.7055Y-0.9922
X5.7055Y-1.2922
X10.8826Y-0.9473
X11.0794Y-0.9473
X10.1505Y-1.1722
X10.1505Y-1.4722
X10.2505Y-1.1722
X10.2505Y-1.4722
X10.3505Y-1.1722
X10.3505Y-1.4722
X10.4505Y-1.1722
X10.4505Y-1.4722
X10.5505Y-1.1722
X10.5505Y-1.4722
X10.6505Y-1.1722
X10.6505Y-1.4722
X10.7505Y-1.1722
X10.7505Y-1.4722
X10.8505Y-1.1722
X10.8505Y-1.4722
X10.9505Y-1.1722
X10.9505Y-1.4722
X11.0505Y-1.1722
X11.0505Y-1.4722
X11.1505Y-1.1722
X11.1505Y-1.4722
X11.2505Y-1.1722
X11.2505Y-1.4722
X11.3505Y-1.1722
X11.3505Y-1.4722
X11.4505Y-1.1722
X11.4505Y-1.4722
X2.6055Y-0.9922
X2.6055Y-1.2922
X11.7334Y-2.2962
X11.7334Y-2.5962
X11.0334Y-4.5372
X11.0334Y-4.8372
X6.1755Y-1.0422
X6.1755Y-1.3422
X2.9255Y-1.0922
X2.9255Y-1.3922
X3.6955Y-1.0422
X3.6955Y-1.3422
X7.7355Y-1.1422
X7.7355Y-1.4422
X1.8355Y-1.0422
X1.8355Y-1.3422
T5
X11.8368Y-2.2637
X11.8368Y-2.4605
X12.4077Y-2.2637
X12.4077Y-2.3621
X12.4077Y-2.4605
X11.2191Y-0.9325
X11.2191Y-1.0325
X11.3191Y-0.9325
X11.3191Y-1.0325
X11.4191Y-0.9325
X11.4191Y-1.0325
X11.8366Y-3.7642
X11.8366Y-3.961
X12.4075Y-3.7642
X12.4075Y-3.8626
X12.4075Y-3.961
X11.8363Y-3.0142
X11.8363Y-3.211
X12.4072Y-3.0142
X12.4072Y-3.1126
X12.4072Y-3.211
T6
X12.25Y-0.9109
X12.25Y-1.1109
X12.05Y-1.0109
X12.15Y-1.0109
X11.95Y-0.9109
X11.95Y-1.1109
X10.8372Y-3.6573
X10.9372Y-3.6548
X11.0372Y-3.6548
X11.1372Y-3.6548
X12.35Y-1.0109
X12.45Y-1.0109
X10.8371Y-2.1578
X10.9371Y-2.1553
X11.0371Y-2.1553
X11.1371Y-2.1553
T7
X11.5766Y-0.9045
X11.5766Y-1.0817
X11.8325Y-0.9045
X11.8325Y-1.0817
X9.8142Y-0.9672
X9.8142Y-1.2231
X9.9914Y-0.9672
X9.9914Y-1.2231
T8
X4.8205Y-2.2622
X4.872Y-2.2047
X5.0689Y-2.185
X5.0705Y-2.1622
X1.8205Y-3.7622
X1.872Y-3.7047
X2.0689Y-3.685
X2.0705Y-3.6622
X1.0705Y-2.2622
X1.122Y-2.2047
X1.3189Y-2.185
X1.3205Y-2.1622
X5.5705Y-4.5122
X5.622Y-4.4547
X5.8189Y-4.435
X5.8205Y-4.4122
X4.8205Y-3.7622
X4.872Y-3.7047
X5.0689Y-3.685
X5.0705Y-3.6622
X1.8205Y-2.2622
X1.872Y-2.2047
X2.0689Y-2.185
X2.0705Y-2.1622
X4.8205Y-4.5122
X4.872Y-4.4547
X5.0689Y-4.435
X5.0705Y-4.4122
X8.5705Y-3.0122
X8.622Y-2.9547
X8.8189Y-2.935
X8.8205Y-2.9122
X1.0705Y-4.5122
X1.122Y-4.4547
X1.3189Y-4.435
X1.3205Y-4.4122
X7.0705Y-3.0122
X7.122Y-2.9547
X7.3189Y-2.935
X7.3205Y-2.9122
X7.0705Y-4.5122
X7.122Y-4.4547
X7.3189Y-4.435
X7.3205Y-4.4122
X3.3205Y-4.5122
X3.372Y-4.4547
X3.5689Y-4.435
X3.5705Y-4.4122
X8.5705Y-4.5122
X8.622Y-4.4547
X8.8189Y-4.435
X8.8205Y-4.4122
X9.3205Y-2.2622
X9.372Y-2.2047
X9.5689Y-2.185
X9.5705Y-2.1622
X11.2122Y-2.2622
X11.2638Y-2.2047
X11.4606Y-2.185
X11.4622Y-2.1622
X7.8205Y-3.7622
X7.872Y-3.7047
X8.0689Y-3.685
X8.0705Y-3.6622
X2.5705Y-2.2622
X2.622Y-2.2047
X2.8189Y-2.185
X2.8205Y-2.1622
X4.8205Y-3.0122
X4.872Y-2.9547
X5.0689Y-2.935
X5.0705Y-2.9122
X4.0705Y-3.0122
X4.122Y-2.9547
X4.3189Y-2.935
X4.3205Y-2.9122
X5.5705Y-2.2622
X5.622Y-2.2047
X5.8189Y-2.185
X5.8205Y-2.1622
X1.8205Y-3.0122
X1.872Y-2.9547
X2.0689Y-2.935
X2.0705Y-2.9122
X3.3205Y-2.2622
X3.372Y-2.2047
X3.5689Y-2.185
X3.5705Y-2.1622
X1.0705Y-3.7622
X1.122Y-3.7047
X1.3189Y-3.685
X1.3205Y-3.6622
X7.8205Y-3.0122
X7.872Y-2.9547
X8.0689Y-2.935
X8.0705Y-2.9122
X6.3205Y-2.2622
X6.372Y-2.2047
X6.5689Y-2.185
X6.5705Y-2.1622
X6.3205Y-4.5122
X6.372Y-4.4547
X6.5689Y-4.435
X6.5705Y-4.4122
X11.2122Y-3.0122
X11.2638Y-2.9547
X11.4606Y-2.935
X11.4622Y-2.9122
X2.5705Y-3.7622
X2.622Y-3.7047
X2.8189Y-3.685
X2.8205Y-3.6622
X1.8205Y-4.5122
X1.872Y-4.4547
X2.0689Y-4.435
X2.0705Y-4.4122
X10.4622Y-3.0122
X10.5138Y-2.9547
X10.7106Y-2.935
X10.7122Y-2.9122
X2.5705Y-4.5122
X2.622Y-4.4547
X2.8189Y-4.435
X2.8205Y-4.4122
X5.1955Y-4.5122
X5.247Y-4.4547
X5.4439Y-4.435
X5.4455Y-4.4122
X6.3205Y-3.7622
X6.372Y-3.7047
X6.5689Y-3.685
X6.5705Y-3.6622
X10.4622Y-2.2622
X10.5138Y-2.2047
X10.7106Y-2.185
X10.7122Y-2.1622
X11.2122Y-3.7622
X11.2638Y-3.7047
X11.4606Y-3.685
X11.4622Y-3.6622
X7.0705Y-2.2622
X7.122Y-2.2047
X7.3189Y-2.185
X7.3205Y-2.1622
X11.9622Y-3.7622
X12.0138Y-3.7047
X12.2106Y-3.685
X12.2122Y-3.6622
X3.3205Y-3.7622
X3.372Y-3.7047
X3.5689Y-3.685
X3.5705Y-3.6622
X2.5705Y-3.0122
X2.622Y-2.9547
X2.8189Y-2.935
X2.8205Y-2.9122
X7.8205Y-2.2622
X7.872Y-2.2047
X8.0689Y-2.185
X8.0705Y-2.1622
X9.3205Y-3.0122
X9.372Y-2.9547
X9.5689Y-2.935
X9.5705Y-2.9122
X7.8205Y-4.5122
X7.872Y-4.4547
X8.0689Y-4.435
X8.0705Y-4.4122
X5.5705Y-3.7622
X5.622Y-3.7047
X5.8189Y-3.685
X5.8205Y-3.6622
X4.0705Y-4.5122
X4.122Y-4.4547
X4.3189Y-4.435
X4.3205Y-4.4122
X11.9622Y-4.5122
X12.0138Y-4.4547
X12.2106Y-4.435
X12.2122Y-4.4122
X6.3205Y-3.0122
X6.372Y-2.9547
X6.5689Y-2.935
X6.5705Y-2.9122
X11.9622Y-3.0122
X12.0138Y-2.9547
X12.2106Y-2.935
X12.2122Y-2.9122
X9.3205Y-3.7622
X9.372Y-3.7047
X9.5689Y-3.685
X9.5705Y-3.6622
X4.0705Y-3.7622
X4.122Y-3.7047
X4.3189Y-3.685
X4.3205Y-3.6622
X10.4622Y-4.5122
X10.5138Y-4.4547
X10.7106Y-4.435
X10.7122Y-4.4122
X7.0705Y-3.7622
X7.122Y-3.7047
X7.3189Y-3.685
X7.3205Y-3.6622
X11.2122Y-4.5122
X11.2638Y-4.4547
X11.4606Y-4.435
X11.4622Y-4.4122
X10.4622Y-3.7622
X10.5138Y-3.7047
X10.7106Y-3.685
X10.7122Y-3.6622
X8.5705Y-2.2622
X8.622Y-2.2047
X8.8189Y-2.185
X8.8205Y-2.1622
X8.5705Y-3.7622
X8.622Y-3.7047
X8.8189Y-3.685
X8.8205Y-3.6622
X4.0705Y-2.2622
X4.122Y-2.2047
X4.3189Y-2.185
X4.3205Y-2.1622
X9.3205Y-4.5122
X9.372Y-4.4547
X9.5689Y-4.435
X9.5705Y-4.4122
X1.0705Y-3.0122
X1.122Y-2.9547
X1.3189Y-2.935
X1.3205Y-2.9122
X5.5705Y-3.0122
X5.622Y-2.9547
X5.8189Y-2.935
X5.8205Y-2.9122
X11.9622Y-2.2622
X12.0138Y-2.2047
X12.2106Y-2.185
X12.2122Y-2.1622
X3.3205Y-3.0122
X3.372Y-2.9547
X3.5689Y-2.935
X3.5705Y-2.9122
T9
G00X12.138Y-2.1416
M15
G01X12.0868Y-2.1416
M16
G05
G00X12.138Y-2.5826
M15
G01X12.0868Y-2.5826
M16
G05
G00X12.1378Y-3.6421
M15
G01X12.0866Y-3.6421
M16
G05
G00X12.1378Y-4.0831
M15
G01X12.0866Y-4.0831
M16
G05
G00X12.1375Y-2.8921
M15
G01X12.0863Y-2.8921
M16
G05
G00X12.1375Y-3.3331
M15
G01X12.0863Y-3.3331
M16
G05
T0
M30
