M48
; DRILL file {KiCad (5.1.4)-1} date 21/01/2021 06:57:04
; FORMAT={-:-/ absolute / inch / decimal}
; #@! TF.CreationDate,2021-01-21T06:57:04+00:00
; #@! TF.GenerationSoftware,Kicad,Pcbnew,(5.1.4)-1
; #@! TF.FileFunction,NonPlated,1,2,NPTH
FMAT,2
INCH
T1C0.0689
T2C0.1181
T3C0.1200
T4C0.1570
%
G90
G05
T1
X4.7705Y-3.1122
X5.1705Y-3.1122
X4.0205Y-3.1122
X4.4205Y-3.1122
X5.5205Y-2.3622
X5.9205Y-2.3622
X1.7705Y-3.1122
X2.1705Y-3.1122
X3.2705Y-2.3622
X3.6705Y-2.3622
X1.0205Y-3.8622
X1.4205Y-3.8622
X7.7705Y-3.1122
X8.1705Y-3.1122
X6.2705Y-2.3622
X6.6705Y-2.3622
X6.2705Y-4.6122
X6.6705Y-4.6122
X11.1622Y-3.1122
X11.5622Y-3.1122
X2.5205Y-3.8622
X2.9205Y-3.8622
X1.7705Y-4.6122
X2.1705Y-4.6122
X10.4122Y-3.1122
X10.8122Y-3.1122
X2.5205Y-4.6122
X2.9205Y-4.6122
X5.1455Y-4.6122
X5.5455Y-4.6122
X6.2705Y-3.8622
X6.6705Y-3.8622
X10.4122Y-2.3622
X10.8122Y-2.3622
X11.1622Y-3.8622
X11.5622Y-3.8622
X7.0205Y-2.3622
X7.4205Y-2.3622
X11.9122Y-3.8622
X12.3122Y-3.8622
X3.2705Y-3.8622
X3.6705Y-3.8622
X2.5205Y-3.1122
X2.9205Y-3.1122
X7.7705Y-2.3622
X8.1705Y-2.3622
X9.2705Y-3.1122
X9.6705Y-3.1122
X7.7705Y-4.6122
X8.1705Y-4.6122
X5.5205Y-3.8622
X5.9205Y-3.8622
X4.0205Y-4.6122
X4.4205Y-4.6122
X11.9122Y-4.6122
X12.3122Y-4.6122
X6.2705Y-3.1122
X6.6705Y-3.1122
X11.9122Y-3.1122
X12.3122Y-3.1122
X9.2705Y-3.8622
X9.6705Y-3.8622
X4.0205Y-3.8622
X4.4205Y-3.8622
X10.4122Y-4.6122
X10.8122Y-4.6122
X7.0205Y-3.8622
X7.4205Y-3.8622
X11.1622Y-4.6122
X11.5622Y-4.6122
X10.4122Y-3.8622
X10.8122Y-3.8622
X8.5205Y-2.3622
X8.9205Y-2.3622
X8.5205Y-3.8622
X8.9205Y-3.8622
X4.0205Y-2.3622
X4.4205Y-2.3622
X9.2705Y-4.6122
X9.6705Y-4.6122
X1.0205Y-3.1122
X1.4205Y-3.1122
X5.5205Y-3.1122
X5.9205Y-3.1122
X11.9122Y-2.3622
X12.3122Y-2.3622
X3.2705Y-3.1122
X3.6705Y-3.1122
X4.7705Y-2.3622
X5.1705Y-2.3622
X1.7705Y-3.8622
X2.1705Y-3.8622
X1.0205Y-2.3622
X1.4205Y-2.3622
X5.5205Y-4.6122
X5.9205Y-4.6122
X4.7705Y-3.8622
X5.1705Y-3.8622
X1.7705Y-2.3622
X2.1705Y-2.3622
X4.7705Y-4.6122
X5.1705Y-4.6122
X8.5205Y-3.1122
X8.9205Y-3.1122
X1.0205Y-4.6122
X1.4205Y-4.6122
X7.0205Y-3.1122
X7.4205Y-3.1122
X7.0205Y-4.6122
X7.4205Y-4.6122
X3.2705Y-4.6122
X3.6705Y-4.6122
X8.5205Y-4.6122
X8.9205Y-4.6122
X9.2705Y-2.3622
X9.6705Y-2.3622
X11.1622Y-2.3622
X11.5622Y-2.3622
X7.7705Y-3.8622
X8.1705Y-3.8622
X2.5205Y-2.3622
X2.9205Y-2.3622
T2
X10.3887Y-3.6763
X10.3887Y-4.7983
X11.5856Y-3.6763
X11.5856Y-4.7983
X10.3886Y-2.1768
X10.3886Y-3.2988
X11.5855Y-2.1768
X11.5855Y-3.2988
T3
X4.8755Y-4.3372
X5.8155Y-4.3372
T4
X4.9705Y-2.3622
X1.9705Y-3.8622
X1.2205Y-2.3622
X5.7205Y-4.6122
X4.9705Y-3.8622
X1.9705Y-2.3622
X4.9705Y-4.6122
X8.7205Y-3.1122
X1.2205Y-4.6122
X7.2205Y-3.1122
X7.2205Y-4.6122
X3.4705Y-4.6122
X8.7205Y-4.6122
X9.4705Y-2.3622
X11.3622Y-2.3622
X7.9705Y-3.8622
X2.7205Y-2.3622
X4.9705Y-3.1122
X4.2205Y-3.1122
X5.7205Y-2.3622
X1.9705Y-3.1122
X3.4705Y-2.3622
X1.2205Y-3.8622
X7.9705Y-3.1122
X6.4705Y-2.3622
X6.4705Y-4.6122
X11.3622Y-3.1122
X2.7205Y-3.8622
X1.9705Y-4.6122
X10.6122Y-3.1122
X2.7205Y-4.6122
X4.8755Y-4.9372
X5.3455Y-4.6122
X5.8155Y-4.9372
X6.4705Y-3.8622
X10.6122Y-2.3622
X11.3622Y-3.8622
X7.2205Y-2.3622
X12.1122Y-3.8622
X3.4705Y-3.8622
X2.7205Y-3.1122
X7.9705Y-2.3622
X9.4705Y-3.1122
X7.9705Y-4.6122
X5.7205Y-3.8622
X4.2205Y-4.6122
X12.1122Y-4.6122
X6.4705Y-3.1122
X12.1122Y-3.1122
X9.4705Y-3.8622
X4.2205Y-3.8622
X10.6122Y-4.6122
X7.2205Y-3.8622
X11.3622Y-4.6122
X10.6122Y-3.8622
X8.7205Y-2.3622
X8.7205Y-3.8622
X4.2205Y-2.3622
X9.4705Y-4.6122
X1.2205Y-3.1122
X5.7205Y-3.1122
X12.1122Y-2.3622
X3.4705Y-3.1122
T0
M30
